<svg class="icon" viewBox="0 0 1024 1024" xmlns="http://www.w3.org/2000/svg" width="48" height="48"><path d="M204.23100000000005 597.22a283.876 283.876 0 1 0 567.751 0 283.876 283.876 0 1 0-567.75 0z" fill="#A3A3A3"/><path d="M262.485 544.085a283.876 283.876 0 1 0 567.751 0 283.876 283.876 0 1 0-567.75 0z" fill="#FFD44D"/><path d="M308.68 519.054c-.115-4.778-3.983-8.647-8.876-8.533-4.778.114-8.647 4.096-8.533 8.875.114 4.778 3.982 8.647 8.875 8.533 4.778-.114 8.647-4.096 8.533-8.875zm-10.013-78.165c4.778-.114 8.647-3.982 8.533-8.875-.114-4.778-3.982-8.647-8.875-8.533-4.778.114-8.647 4.096-8.533 8.875.114 4.778 4.096 8.647 8.875 8.533zm130.958 24.007c-4.779.114-8.647 4.096-8.533 8.875.113 4.778 3.982 8.647 8.874 8.533 4.779-.114 8.647-3.982 8.534-8.875-.114-4.778-4.096-8.647-8.875-8.533zm44.146 42.78c-4.779.114-8.647 4.096-8.534 8.875.114 4.779 3.983 8.647 8.875 8.533 4.779-.113 8.647-3.982 8.533-8.874-.113-4.779-4.096-8.647-8.874-8.534zm-1.366-87.04c-4.778.114-8.647 4.096-8.533 8.875.114 4.779 3.982 8.647 8.875 8.533 4.778-.113 8.647-3.982 8.533-8.874-.114-4.779-4.096-8.534-8.875-8.534zm-85.56 88.406c-4.78.114-8.648 4.096-8.534 8.874.114 4.78 3.982 8.648 8.875 8.534 4.778-.114 8.647-3.982 8.533-8.875-.114-4.779-4.096-8.533-8.875-8.533zm-1.48-86.926c-4.778.113-8.647 4.096-8.533 8.874.114 4.779 3.982 8.647 8.875 8.534 4.778-.114 8.647-3.983 8.533-8.875-.114-4.779-3.982-8.647-8.875-8.533zm-42.78 44.145c-4.779.114-8.647 4.096-8.533 8.875.113 4.779 3.982 8.647 8.874 8.533 4.779-.113 8.647-3.982 8.534-8.874-.114-4.779-4.096-8.534-8.875-8.534zm1.479 87.04c-1.82 0-3.413.57-4.892 1.593-.456.342-.91.683-1.252 1.138-.796.796-1.365 1.707-1.82 2.844a8.38 8.38 0 0 0-.456 1.593c-.113.57-.113 1.138-.113 1.707 0 .341 0 .683.113 1.024.342 2.844 2.162 5.234 4.552 6.485 1.251.683 2.616 1.024 4.21 1.024.454 0 .796 0 1.25-.113 1.935-.342 3.528-1.252 4.893-2.504a7.773 7.773 0 0 0 2.048-3.64c0-.114 0-.228.114-.342.114-.227.114-.455.114-.682.114-.456.114-1.024.114-1.48 0-2.389-1.024-4.55-2.617-6.144-1.707-1.592-3.869-2.616-6.258-2.503zM426.78 290.93c-4.778.114-8.647 4.096-8.533 8.874.114 4.78 3.982 8.648 8.875 8.534 4.778-.114 8.647-3.982 8.533-8.875-.114-4.779-4.096-8.647-8.875-8.533zm44.146 42.78c-4.778.114-8.647 4.096-8.533 8.875.114 4.779 3.982 8.647 8.875 8.533 4.778-.114 8.647-3.982 8.533-8.874-.114-4.78-4.096-8.648-8.875-8.534zM384 335.076c-4.779.113-8.647 4.096-8.533 8.874.113 4.779 3.982 8.647 8.874 8.534 4.779-.114 8.647-3.983 8.534-8.875-.114-4.779-4.096-8.533-8.875-8.533zm52.907 50.517c-.114-1.138-.455-2.276-1.024-3.186-.455-.683-.91-1.365-1.48-1.934-1.592-1.593-3.754-2.503-6.143-2.503-2.39 0-4.552 1.024-6.144 2.617-.342.455-.683.796-1.024 1.251-.91 1.366-1.48 3.072-1.366 4.893 0 1.251.228 2.389.683 3.413 1.365 3.072 4.551 5.234 8.078 5.234 3.641-.114 6.713-2.276 7.965-5.462.455-1.024.682-2.161.682-3.413-.114-.341-.114-.683-.227-.91zm-89.543-3.869c-1.593-1.592-3.755-2.503-6.144-2.503-2.39 0-4.552 1.024-6.144 2.617-.342.455-.683.797-1.024 1.252-.91 1.365-1.48 3.072-1.366 4.892 0 1.252.228 2.39.683 3.414 1.365 3.072 4.551 5.233 8.078 5.233 3.641-.113 6.6-2.275 7.965-5.461.455-1.024.682-2.162.682-3.413 0-1.82-.569-3.414-1.593-4.893-.341-.227-.682-.682-1.137-1.138zm256.455 97.736c4.778-.114 8.647-3.983 8.533-8.875-.114-4.779-4.096-8.647-8.875-8.533-4.778.113-8.647 4.096-8.533 8.874.114 4.779 4.096 8.534 8.875 8.534zm44.26 42.78c4.778-.114 8.646-3.982 8.533-8.875-.114-4.778-3.983-8.647-8.875-8.533-4.779.114-8.647 4.096-8.533 8.875.113 4.778 3.982 8.533 8.874 8.533zm-1.48-87.04c4.779-.114 8.647-3.982 8.533-8.875-.113-4.778-3.982-8.647-8.874-8.533-4.779.114-8.647 4.096-8.534 8.875.114 4.778 4.096 8.647 8.875 8.533zm-85.56 88.405c4.778-.113 8.646-3.982 8.533-8.874-.114-4.779-3.983-8.647-8.875-8.534-4.779.114-8.647 4.096-8.533 8.875.113 4.779 4.096 8.647 8.874 8.533zm7.167-95.8c-.114-4.78-3.982-8.648-8.874-8.534-4.78.114-8.648 4.096-8.534 8.875.114 4.778 3.982 8.647 8.875 8.533 4.779-.114 8.647-4.096 8.533-8.875zm-51.655 35.612c-4.779.114-8.647 4.096-8.533 8.875.114 4.778 3.982 8.647 8.874 8.533 4.78-.114 8.648-3.982 8.534-8.875-.114-4.778-4.096-8.533-8.875-8.533zm84.423-157.924c4.779-.113 8.647-3.982 8.534-8.874-.114-4.779-4.096-8.647-8.875-8.534-4.779.114-8.647 4.096-8.533 8.875.113 4.779 4.096 8.533 8.874 8.533zm52.793 33.906c-.114-4.779-3.982-8.647-8.875-8.533-4.778.114-8.647 4.096-8.533 8.874.114 4.78 3.982 8.648 8.875 8.534 4.778-.114 8.647-4.096 8.533-8.875zm-95.573 10.24c4.778-.114 8.647-3.982 8.533-8.875-.114-4.778-3.982-8.647-8.875-8.533-4.778.114-8.647 4.096-8.533 8.875.114 4.778 4.096 8.647 8.875 8.533zm-3.869-87.267a8.873 8.873 0 0 0 2.503.34c.57 0 1.138-.113 1.593-.227-1.365 0-2.73-.113-4.096-.113zm48.128 130.048c3.641-.114 6.713-2.276 7.965-5.462.455-1.024.682-2.162.682-3.413 0-2.048-.796-3.982-2.048-5.461-.227-.228-.34-.456-.568-.57-1.593-1.592-3.755-2.502-6.144-2.502-2.39 0-4.552 1.024-6.144 2.616-.342.456-.683.797-1.024 1.252-.91 1.365-1.48 3.072-1.366 4.892 0 1.252.228 2.39.683 3.414 1.251 3.186 4.323 5.347 7.964 5.234zm-88.746-102.97c-4.779.114-8.647 4.097-8.534 8.875.114 4.779 3.983 8.647 8.875 8.534 4.779-.114 8.647-3.983 8.533-8.875-.113-4.779-4.096-8.533-8.874-8.533zm7.623 89.43c-1.593-1.593-3.755-2.503-6.144-2.503-2.39 0-4.551 1.024-6.144 2.617-.342.455-.683.796-1.024 1.251-.91 1.366-1.48 3.072-1.366 4.893 0 1.251.228 2.39.683 3.413 1.365 3.072 4.551 5.234 8.078 5.234 3.641-.114 6.6-2.276 7.965-5.461.455-1.024.682-2.162.682-3.414 0-1.479-.455-2.958-1.137-4.096a13.097 13.097 0 0 0-1.593-1.934zm264.988 88.86c-.114-4.778-4.096-8.647-8.874-8.533-4.78.114-8.648 4.096-8.534 8.875.114 4.778 3.982 8.647 8.875 8.533 4.779-.114 8.647-4.096 8.533-8.875zm-51.314 53.02c4.78-.113 8.648-3.981 8.534-8.874-.114-4.778-3.982-8.647-8.875-8.533-4.779.114-8.647 4.096-8.533 8.875.114 4.778 4.096 8.647 8.874 8.533zm7.168-95.8c-.113-4.779-3.982-8.647-8.874-8.533-4.779.113-8.647 4.096-8.534 8.874.114 4.779 3.983 8.647 8.875 8.534 4.779-.114 8.533-4.096 8.533-8.875zm-51.313 53.02c4.778-.113 8.647-3.982 8.533-8.874-.114-4.779-3.982-8.647-8.875-8.534-4.778.114-8.647 4.096-8.533 8.875.114 4.779 3.982 8.647 8.875 8.533zm32.426-139.719c.114 4.779 3.983 8.647 8.875 8.534 4.779-.114 8.647-3.983 8.533-8.875v-.114c-3.072-2.844-6.257-5.689-9.443-8.306-4.551.342-7.965 4.21-7.965 8.761zm53.135 51.314c2.503 0 4.778-1.138 6.371-2.958a281.699 281.699 0 0 0-10.012-13.767 9.691 9.691 0 0 0-2.845 1.934c-.341.455-.682.796-1.024 1.252-.91 1.365-1.479 3.072-1.365 4.892 0 1.252.227 2.39.683 3.413 1.365 3.186 4.55 5.348 8.192 5.234zm-88.406-85.56c1.934 0 3.755-.683 5.12-1.821a277.103 277.103 0 0 0-13.994-7.85c0 .34-.114.682 0 1.023.113 4.893 3.982 8.761 8.874 8.647zm1.366 87.04c.455 0 .91 0 1.365-.115 2.958-.455 5.461-2.616 6.599-5.347.455-1.024.683-2.162.683-3.413 0-1.48-.455-2.959-1.138-4.096-.455-.683-.91-1.366-1.48-1.935-1.592-1.593-3.754-2.503-6.143-2.503-2.39 0-4.551 1.024-6.144 2.617-.342.455-.683.797-1.024 1.252-.91 1.365-1.48 3.072-1.366 4.892 0 1.252.228 2.39.683 3.413 1.252 3.072 4.324 5.234 7.965 5.234zM311.524 693.02c-.114-4.778-3.983-8.647-8.875-8.533-.91 0-1.707.114-2.503.341 2.73 4.893 5.689 9.785 8.647 14.45 1.82-1.593 2.73-3.754 2.73-6.258zm-10.013-78.165c4.779-.114 8.647-3.982 8.533-8.875-.113-4.778-3.982-8.647-8.874-8.533-4.779.114-8.647 4.096-8.534 8.875.114 4.778 4.096 8.647 8.875 8.533zM522.24 811.35c-4.779.114-8.647 4.096-8.533 8.875.113 4.779 3.982 8.647 8.874 8.533 4.779-.113 8.647-3.982 8.534-8.874-.114-4.779-3.983-8.647-8.875-8.534zm-52.68-33.905c.115 4.778 3.983 8.647 8.876 8.533 4.778-.114 8.647-3.982 8.533-8.875-.114-4.778-3.982-8.647-8.875-8.533-4.778.114-8.647 4.096-8.533 8.875zm-69.631 1.137c-.114-4.778-3.982-8.647-8.875-8.533-4.21.114-7.623 3.072-8.42 6.94 4.324 3.072 8.762 6.144 13.313 8.989 2.503-1.593 4.096-4.324 3.982-7.396zm32.54-139.719c-4.778.114-8.647 4.096-8.533 8.875.114 4.779 3.982 8.647 8.875 8.533 4.778-.114 8.647-3.982 8.533-8.874-.114-4.78-4.096-8.648-8.875-8.534zm44.146 42.78c-4.779.114-8.647 4.097-8.533 8.875.114 4.779 3.982 8.647 8.874 8.534 4.78-.114 8.648-3.983 8.534-8.875-.114-4.779-3.982-8.647-8.875-8.533zm-1.365-87.04c-4.779.114-8.647 4.097-8.534 8.875.114 4.779 3.983 8.647 8.875 8.534 4.779-.114 8.647-3.983 8.533-8.875-.113-4.779-4.096-8.647-8.874-8.533zm-94.094 97.28c.113 4.78 3.982 8.648 8.874 8.534 4.779-.114 8.647-3.982 8.534-8.875-.114-4.778-3.983-8.647-8.875-8.533-4.779.114-8.647 4.096-8.533 8.875zm7.054-95.8c-4.779.114-8.647 4.096-8.534 8.874.114 4.78 3.983 8.648 8.875 8.534 4.779-.114 8.647-3.982 8.533-8.875-.113-4.779-3.982-8.647-8.874-8.533zm45.625 129.706c-1.252 0-2.39.228-3.414.683-2.048.91-3.754 2.617-4.55 4.665-.456 1.024-.683 2.162-.683 3.413.113 3.641 2.275 6.713 5.46 7.965 1.025.455 2.163.682 3.414.682s2.39-.227 3.414-.682c3.072-1.366 5.233-4.551 5.233-8.078 0-1.252-.227-2.39-.796-3.414-.91-2.048-2.617-3.754-4.665-4.55-1.024-.456-2.162-.684-3.413-.684zm-88.406-85.56c-4.778.113-8.647 4.096-8.533 8.874.114 4.779 3.982 8.647 8.875 8.534 4.778-.114 8.647-3.983 8.533-8.875-.114-4.779-3.982-8.533-8.875-8.533zm1.707 104.448c1.252 0 2.39-.228 3.413-.683 3.072-1.365 5.234-4.551 5.234-8.078 0-1.252-.227-2.39-.683-3.414-.91-2.048-2.616-3.754-4.664-4.55-1.024-.456-2.162-.683-3.414-.683s-2.39.227-3.413.682c-2.048.91-3.755 2.617-4.551 4.665-.455 1.024-.683 2.162-.683 3.413 0 .57.114 1.138.228 1.707l6.144 6.485c.796.342 1.593.456 2.389.456zm90.112-190.35c-1.593-1.594-3.755-2.504-6.144-2.39-1.82 0-3.413.569-4.892 1.593-.456.341-.91.683-1.252 1.138-.796.796-1.365 1.706-1.82 2.844-.456 1.024-.683 2.162-.683 3.413 0 .456 0 .797.114 1.138.455 2.845 2.161 5.12 4.55 6.372.115.114.342.114.456.227.114 0 .227.114.227.114 1.024.455 2.162.683 3.414.683 2.275 0 4.437-1.024 5.916-2.503.114-.114.228-.228.342-.455 1.479-1.593 2.275-3.641 2.275-5.917 0-2.048-.796-3.982-2.048-5.461a1.595 1.595 0 0 0-.455-.797zm180.907 264.191c-.114-4.778-4.096-8.647-8.875-8.533-4.779.114-8.647 4.096-8.533 8.875 0 2.275.91 4.323 2.389 5.802 4.892-.91 9.785-2.048 14.564-3.3.227-.91.455-1.82.455-2.844zm34.133-35.385c4.779-.113 8.647-3.982 8.533-8.874-.113-4.779-3.982-8.647-8.874-8.534-4.779.114-8.647 4.096-8.534 8.875.114 4.779 4.096 8.647 8.875 8.533zm-86.926 1.366c4.778-.114 8.647-3.982 8.533-8.875-.114-4.779-3.982-8.647-8.875-8.533-4.778.114-8.647 4.096-8.533 8.874.114 4.78 4.096 8.648 8.875 8.534zm41.301-131.186c4.779-.114 8.647-3.982 8.533-8.875-.113-4.778-4.096-8.647-8.874-8.533-4.779.114-8.647 4.096-8.534 8.875.114 4.892 4.096 8.647 8.875 8.533zm44.26 42.78c4.778-.113 8.647-3.982 8.533-8.874-.114-4.779-3.982-8.647-8.875-8.534-4.778.114-8.647 4.096-8.533 8.875.114 4.893 3.982 8.647 8.875 8.533zm-1.48-86.926c4.78-.114 8.648-3.982 8.534-8.874-.114-4.78-3.982-8.648-8.875-8.534-4.778.114-8.647 4.096-8.533 8.875.114 4.779 4.096 8.647 8.875 8.533zm-85.56 88.406c4.778-.114 8.647-3.983 8.533-8.875-.114-4.779-3.982-8.647-8.875-8.533-4.778.113-8.647 4.096-8.533 8.874.114 4.779 4.096 8.647 8.875 8.534zm-1.366-86.927c4.779-.113 8.647-3.982 8.534-8.874-.114-4.779-3.983-8.647-8.875-8.534-4.779.114-8.647 4.096-8.533 8.875.113 4.779 3.982 8.533 8.874 8.533zM604.73 739.67c1.024.455 2.162.683 3.413.683s2.39-.228 3.414-.683c3.072-1.365 5.233-4.55 5.233-8.078 0-1.251-.227-2.39-.796-3.413-.91-2.048-2.617-3.755-4.665-4.551-1.024-.455-2.162-.683-3.413-.683s-2.39.228-3.414.683c-2.048.91-3.754 2.617-4.55 4.665-.456 1.024-.683 2.161-.683 3.413.113 3.64 2.275 6.713 5.46 7.964zm-85.333-102.286c-4.78.114-8.648 4.096-8.534 8.875.114 4.778 3.982 8.647 8.875 8.533 4.779-.114 8.647-3.982 8.533-8.875-.114-4.778-4.096-8.647-8.874-8.533zm1.479 87.04c-1.252 0-2.39.228-3.414.683-2.048.91-3.754 2.617-4.55 4.665-.456 1.024-.683 2.161-.683 3.413.113 3.64 2.275 6.713 5.46 7.964 1.025.456 2.163.683 3.414.683s2.39-.227 3.414-.683c3.072-1.365 5.233-4.55 5.233-8.078 0-1.251-.227-2.39-.682-3.413-.91-2.048-2.617-3.755-4.665-4.551-1.252-.57-2.39-.797-3.527-.683zm79.758-159.289a9.224 9.224 0 0 0 4.665 1.252c.341 0 .569 0 .91-.114 1.934-.228 3.755-1.138 5.006-2.39 1.366-1.365 2.39-3.185 2.617-5.347 0-.341.114-.683 0-1.024 0-1.479-.455-2.958-1.138-4.096-.113-.227-.341-.455-.455-.683-.455-.682-1.024-1.251-1.706-1.82-1.48-1.252-3.414-1.934-5.576-1.934-1.251 0-2.389.227-3.413.682-1.251.57-2.39 1.48-3.3 2.504-.227.227-.34.455-.455.682-.91 1.366-1.479 3.072-1.365 4.893 0 .455 0 .796.114 1.137.341 2.731 1.934 4.893 4.096 6.258zm-82.603-14.677c-.91 0-1.82.114-2.617.455-.569.228-1.024.455-1.593.683-.227.113-.455.341-.682.455-2.276 1.593-3.755 4.323-3.755 7.282 0 .455 0 .796.114 1.137.455 2.845 2.162 5.12 4.551 6.372 1.252.683 2.617 1.024 4.21 1.024 2.048 0 3.982-.797 5.461-2.048.228-.228.455-.341.683-.569.569-.569 1.024-1.138 1.365-1.82l.341-.683c.114-.114.114-.228.114-.341.114-.342.228-.797.342-1.138 0-.228.113-.455.113-.57.114-.454.114-1.023.114-1.478 0-1.252-.227-2.39-.683-3.414-1.365-3.3-4.55-5.46-8.078-5.347zm262.6 100.01c4.778-.113 8.646-3.982 8.533-8.874-.114-4.779-4.096-8.647-8.875-8.533-4.779.113-8.647 4.096-8.533 8.874.113 4.893 4.096 8.647 8.874 8.534zm-42.781 44.26c4.779-.114 8.647-3.982 8.533-8.875-.114-4.778-3.982-8.647-8.874-8.533-4.78.114-8.648 4.096-8.534 8.875.114 4.778 4.096 8.647 8.875 8.533zm-1.365-86.926c4.778-.114 8.647-3.982 8.533-8.875-.114-4.778-3.982-8.647-8.875-8.533-4.778.114-8.647 4.096-8.533 8.875.114 4.778 3.982 8.533 8.875 8.533zm-42.78 44.146c4.778-.114 8.646-3.983 8.532-8.875-.113-4.779-3.982-8.647-8.874-8.533-4.779.113-8.647 4.096-8.534 8.874.114 4.779 3.983 8.647 8.875 8.534zm-2.049 86.357c1.024.455 2.162.683 3.413.683s2.39-.228 3.414-.683c3.072-1.365 5.234-4.551 5.234-8.078 0-1.252-.228-2.39-.683-3.414-.91-2.048-2.617-3.754-4.665-4.55-1.024-.456-2.162-.683-3.413-.683s-2.39.227-3.414.682c-2.048.91-3.754 2.617-4.55 4.665-.456 1.024-.683 2.162-.683 3.414 0 3.64 2.275 6.712 5.347 7.964zm79.19-180.793a9.226 9.226 0 0 0 2.161 3.527c1.593 1.593 3.755 2.503 6.144 2.503 1.934 0 3.755-.682 5.12-1.82 1.82-1.365 3.072-3.527 3.3-6.03 0-.342.114-.683 0-1.024 0-1.48-.455-2.959-1.138-4.096-.114-.228-.341-.455-.455-.683-.455-.683-1.024-1.252-1.707-1.82-1.479-1.252-3.413-1.935-5.575-1.935-.91 0-1.82.114-2.617.455-.569.228-1.024.456-1.593.683-.227.114-.455.341-.682.455-2.276 1.593-3.755 4.324-3.755 7.282 0 .796.114 1.593.341 2.39.342 0 .455.113.455.113zm-87.04 1.48c.682 1.933 1.934 3.526 3.527 4.55 1.365.91 3.072 1.48 4.892 1.366 2.048 0 3.982-.797 5.461-2.048 1.935-1.593 3.072-4.096 3.072-6.713 0-2.958-1.593-5.575-3.982-7.168-.455-.342-.91-.57-1.479-.797s-1.024-.341-1.593-.455c-.569-.114-1.138-.114-1.707-.114-.91 0-1.82.114-2.616.456-.57.227-1.024.455-1.593.682-.228.114-.455.342-.683.455-2.276 1.593-3.755 4.324-3.755 7.282 0 .797.114 1.593.342 2.39.113 0 .113 0 .113.113z" fill="#231B3B"/><path d="M950.044 369.436c-14.563-51.313-75.776-85.56-163.043-100.01 12.97 15.246 24.803 31.516 35.157 48.81 48.583 13.768 81.579 35.272 89.088 61.896 4.438 15.473.683 33.564-11.264 53.93-12.743 21.846-35.84 46.422-67.811 70.998 0-1.593.227-3.072.227-4.665 0-175.787-144.27-318.35-322.332-318.35-178.062.113-322.333 142.563-322.333 318.463 0 53.817 13.654 104.448 37.547 148.936-63.716-12.857-107.406-37.092-116.395-68.495-4.437-15.473-.682-33.564 11.264-53.93 6.486-11.037 16.27-22.87 27.762-34.816.455-20.708 2.503-40.96 6.485-60.644-65.194 52.68-98.531 109.91-84.195 160.085 15.815 55.524 86.13 91.25 185.116 103.197 58.937 75.32 151.097 124.018 254.863 124.018 158.037 0 289.223-112.413 316.757-260.665 90.567-59.961 139.947-129.252 123.107-188.758zm-439.978 409.6c-77.028 0-146.774-30.606-197.632-80.1 6.826.228 13.767.342 20.821.342 70.087 0 149.049-9.785 230.4-30.378 80.896-20.48 153.828-49.039 214.357-81.807-36.977 111.389-142.904 191.943-267.946 191.943zM789.732 534.3c-59.165 36.75-138.696 71.567-236.09 96.256-75.434 19.001-151.665 29.128-220.5 29.128-19.912 0-38.571 1.706-56.548.113-30.606-44.6-48.583-101.262-48.583-159.175 0-153.827 126.293-278.528 282.055-278.528s282.055 124.7 282.055 278.528c0 11.264-.91 22.528-2.39 33.678zm-420.75 45.74c-44.488 0-80.555-35.727-80.555-79.645s36.181-79.531 80.554-79.531c44.487 0 80.555 35.726 80.555 79.53 0 43.919-36.068 79.645-80.555 79.645zm0-119.354c-22.187 0-40.278 17.863-40.278 39.822s18.09 39.823 40.277 39.823 40.278-17.863 40.278-39.823-18.091-39.822-40.278-39.822zm171.235-99.442c-27.762 0-50.404-22.3-50.404-49.72s22.528-49.721 50.404-49.721c27.762 0 50.403 22.3 50.403 49.72 0 27.307-22.641 49.721-50.403 49.721zm0-59.733c-5.575 0-10.126 4.437-10.126 9.899 0 5.461 4.55 9.898 10.126 9.898s10.126-4.437 10.126-9.898c0-5.462-4.551-9.899-10.126-9.899zm110.82 238.706c-22.187 0-40.278-17.863-40.278-39.822s18.09-39.823 40.277-39.823 40.278 17.864 40.278 39.823c0 22.073-18.09 39.822-40.278 39.822zm0 0" fill="#592B0C"/><path d="M510.066 827.392c-51.997 0-101.831-11.605-148.025-34.702-42.894-21.39-81.351-52.338-111.275-89.885-49.834-6.371-91.25-18.318-123.335-35.84-35.043-19.114-57.116-43.69-65.422-73.045-14.677-51.769 16.156-111.844 87.04-169.074a8.587 8.587 0 0 1 9.785-.682c3.072 1.82 4.665 5.46 3.982 8.988-3.64 18.773-5.803 38.684-6.258 59.164 0 2.162-.91 4.096-2.39 5.69-12.4 13.084-21.162 23.893-26.623 33.336-10.581 18.205-14.109 34.134-10.354 47.218 6.94 24.576 40.391 45.511 92.501 58.596-19.91-42.667-30.378-89.657-30.378-136.648 0-87.38 34.474-169.415 96.938-231.196 62.464-61.668 145.522-95.687 233.928-95.687s171.463 34.02 233.927 95.687c59.392 58.596 93.411 135.623 96.71 218.112 23.553-19.797 41.416-39.48 51.997-57.572 10.582-18.204 14.109-34.133 10.354-47.217-6.485-22.756-36.068-42.667-83.285-56.093a8.456 8.456 0 0 1-5.007-3.868c-10.012-16.612-21.504-32.654-34.36-47.673-2.276-2.73-2.731-6.6-.91-9.785 1.706-3.072 5.233-4.779 8.874-4.21 94.55 15.588 154.852 53.248 169.87 106.041 17.18 60.53-27.875 131.869-123.676 196.04-14.336 72.817-53.93 139.263-111.73 187.391-59.506 49.607-135.054 76.914-212.878 76.914zM142.222 453.063C89.43 500.85 66.788 548.75 78.28 589.37c14.109 49.72 78.962 85.106 177.949 97.052 2.275.228 4.323 1.48 5.688 3.186 28.786 36.75 65.992 67.129 107.634 87.837 43.805 21.845 91.022 32.881 140.402 32.881 73.842 0 145.522-25.827 201.842-72.817C767.43 691.2 805.205 626.916 818.29 556.6c.455-2.276 1.706-4.324 3.64-5.575 44.488-29.355 78.849-61.213 99.556-92.046 20.935-31.29 27.648-60.53 20.139-87.04-6.485-22.87-23.438-42.667-50.404-58.824-22.073-13.198-50.062-23.552-83.285-30.72 7.054 9.33 13.54 19.001 19.57 28.786 51.996 15.246 83.626 38.343 91.818 66.902 5.12 17.749 1.024 38.115-12.06 60.53-13.653 23.324-37.888 48.696-70.087 73.5-2.617 2.048-6.144 2.275-8.989.91-2.958-1.48-4.778-4.437-4.664-7.737 0-1.024.113-1.934.113-2.73 0-.683.114-1.252.114-1.821 0-82.716-32.654-160.54-91.819-219.022-59.278-58.596-138.126-90.795-221.866-90.795-83.854 0-162.589 32.2-221.867 90.795-59.278 58.482-91.819 136.306-91.819 219.022 0 50.29 12.63 100.466 36.523 144.953 1.593 2.958 1.252 6.485-.683 9.102-1.934 2.617-5.347 3.982-8.533 3.3-69.518-13.995-113.209-40.505-122.88-74.525-5.006-17.75-1.024-38.115 12.06-60.53 5.803-9.898 14.564-21.048 26.738-34.02a331.836 331.836 0 0 1 2.617-35.953zM510.066 787.57c-76.573 0-148.935-29.241-203.662-82.49-2.504-2.502-3.3-6.257-1.935-9.443 1.366-3.3 4.551-5.347 8.079-5.233 7.85.227 14.336.34 20.593.34 71.453 0 150.415-10.353 228.352-30.036 76.914-19.456 150.3-47.446 212.31-81.01 3.072-1.707 6.826-1.252 9.557.91 2.73 2.276 3.755 5.916 2.617 9.216-18.887 57.003-54.841 106.155-103.993 141.88-50.062 36.524-109.454 55.866-171.918 55.866zm-174.99-79.645c49.038 40.505 110.364 62.578 174.99 62.578 58.823 0 114.802-18.204 162.02-52.565 40.163-29.241 70.997-67.926 89.998-112.868-58.71 29.582-126.18 54.386-196.38 72.135-78.508 19.911-158.266 30.493-230.628 30.72zM294.343 668.9c-6.144 0-12.288-.228-18.432-.797-2.503-.227-4.779-1.593-6.258-3.64-32.313-46.991-50.062-105.245-50.062-163.955 0-76.686 30.265-148.82 85.106-202.98 54.84-54.157 127.772-84.08 205.369-84.08s150.528 29.809 205.369 84.08c54.954 54.273 85.105 126.294 85.105 202.98 0 10.696-.796 22.073-2.389 34.816-.341 2.504-1.82 4.893-3.982 6.144-65.877 40.847-148.366 74.411-238.478 97.28-76.004 19.229-153.031 29.355-222.55 29.355-6.713 0-13.425.228-19.91.341-6.372.228-12.744.456-18.888.456zm-12.97-17.408c10.012.682 20.48.34 31.402 0 6.6-.228 13.426-.456 20.366-.456 68.153 0 143.702-10.012 218.34-28.785 86.926-21.96 166.457-54.045 230.172-93.07 1.138-10.354 1.707-19.798 1.707-28.673 0-72.135-28.444-139.946-80.1-190.919-51.655-50.972-120.376-79.075-193.422-79.075s-141.767 28.103-193.422 79.075c-51.655 50.973-80.1 118.784-80.1 190.92.228 53.93 16.157 107.406 45.056 150.983zM789.731 534.3zm-420.75 54.272c-49.153 0-89.089-39.48-89.089-88.177 0-48.583 39.936-88.064 89.088-88.064 49.152 0 89.088 39.48 89.088 88.064 0 48.697-39.936 88.177-89.088 88.177zm0-159.175c-39.71 0-72.022 31.858-72.022 70.998s32.313 71.11 72.021 71.11 72.022-31.857 72.022-71.11c0-39.14-32.313-70.998-72.022-70.998zM651.035 548.75c-26.965 0-48.81-21.731-48.81-48.355s21.845-48.356 48.81-48.356 48.811 21.732 48.811 48.356c0 26.737-21.959 48.355-48.81 48.355zm0-79.53c-17.521 0-31.744 13.994-31.744 31.288s14.223 31.29 31.744 31.29c17.522 0 31.744-13.995 31.744-31.29s-14.222-31.288-31.744-31.288zm-282.055 79.53c-26.965 0-48.81-21.731-48.81-48.355s21.845-48.356 48.81-48.356 48.811 21.732 48.811 48.356c0 26.737-21.845 48.355-48.81 48.355zm0-79.53c-17.521 0-31.744 13.994-31.744 31.288s14.223 31.29 31.744 31.29 31.744-13.995 31.744-31.29-14.222-31.288-31.744-31.288zm171.236-99.442c-32.427 0-58.937-26.17-58.937-58.254 0-32.086 26.396-58.255 58.937-58.255 32.427 0 58.937 26.17 58.937 58.255s-26.51 58.254-58.937 58.254zm0-99.556c-23.097 0-41.87 18.432-41.87 41.188s18.773 41.187 41.87 41.187c23.097 0 41.87-18.432 41.87-41.187s-18.773-41.188-41.87-41.188zm0 59.734c-10.24 0-18.66-8.306-18.66-18.432 0-10.24 8.306-18.432 18.66-18.432 10.24 0 18.66 8.305 18.66 18.432 0 10.126-8.42 18.432-18.66 18.432zm0-19.912c-.797 0-1.593.683-1.593 1.366 0 .796.683 1.365 1.593 1.365.796 0 1.593-.683 1.593-1.365s-.797-1.366-1.593-1.366z" fill="#592B0C"/></svg>